<svg width="137" height="43" viewBox="0 0 137 43" fill="none" xmlns="http://www.w3.org/2000/svg">
<g filter="url(#filter0_bd_295_528)">
<rect x="4" width="129" height="35" rx="4" fill="#010017" fill-opacity="0.49" shape-rendering="crispEdges"/>
<path d="M14.28 9.32H15.128L17.336 15H16.392L15.792 13.456H13.6L13.008 15H12.056L14.28 9.32ZM15.616 12.792L14.704 10.304L13.76 12.792H15.616ZM18.8288 15L17.2368 10.816H18.1488L19.3408 14.184L20.5328 10.816H21.3808L19.7888 15H18.8288ZM22.0124 15V10.816H22.8924V15H22.0124ZM22.0124 10.128V9.16H22.8924V10.128H22.0124ZM26.2779 14.784C26.2032 14.8213 26.1099 14.8613 25.9979 14.904C25.8859 14.9467 25.7579 14.984 25.6139 15.016C25.4752 15.048 25.3312 15.064 25.1819 15.064C25.0005 15.064 24.8325 15.032 24.6779 14.968C24.5232 14.904 24.3979 14.8027 24.3019 14.664C24.2112 14.52 24.1659 14.336 24.1659 14.112V11.496H23.6139V10.816H24.1659V9.44H25.0459V10.816H25.9579V11.496H25.0459V13.832C25.0565 13.976 25.1019 14.0827 25.1819 14.152C25.2672 14.2213 25.3712 14.256 25.4939 14.256C25.6165 14.256 25.7339 14.2347 25.8459 14.192C25.9579 14.1493 26.0405 14.1147 26.0939 14.088L26.2779 14.784ZM26.5834 13.776C26.5834 13.5093 26.658 13.2773 26.8074 13.08C26.962 12.8773 27.1727 12.7227 27.4394 12.616C27.706 12.504 28.0154 12.448 28.3674 12.448C28.554 12.448 28.7434 12.4613 28.9354 12.488C29.1327 12.5147 29.306 12.5573 29.4554 12.616V12.352C29.4554 12.0587 29.3674 11.8293 29.1914 11.664C29.0154 11.4987 28.762 11.416 28.4314 11.416C28.1967 11.416 27.9754 11.4587 27.7674 11.544C27.5594 11.624 27.338 11.7387 27.1034 11.888L26.8074 11.296C27.0847 11.1093 27.362 10.9707 27.6394 10.88C27.922 10.7893 28.218 10.744 28.5274 10.744C29.0874 10.744 29.5274 10.8933 29.8474 11.192C30.1727 11.4853 30.3354 11.904 30.3354 12.448V14.008C30.3354 14.1093 30.3514 14.1813 30.3834 14.224C30.4207 14.2667 30.482 14.2907 30.5674 14.296V15C30.4874 15.016 30.4154 15.0267 30.3514 15.032C30.2874 15.0373 30.234 15.04 30.1914 15.04C30.0047 15.04 29.8634 14.9947 29.7674 14.904C29.6714 14.8133 29.6154 14.7067 29.5994 14.584L29.5754 14.344C29.394 14.5787 29.162 14.76 28.8794 14.888C28.5967 15.016 28.3114 15.08 28.0234 15.08C27.746 15.08 27.498 15.024 27.2794 14.912C27.0607 14.7947 26.89 14.6373 26.7674 14.44C26.6447 14.2427 26.5834 14.0213 26.5834 13.776ZM29.2474 14.032C29.3114 13.9627 29.362 13.8933 29.3994 13.824C29.4367 13.7547 29.4554 13.6933 29.4554 13.64V13.16C29.306 13.1013 29.1487 13.0587 28.9834 13.032C28.818 13 28.6554 12.984 28.4954 12.984C28.1754 12.984 27.914 13.048 27.7114 13.176C27.514 13.304 27.4154 13.48 27.4154 13.704C27.4154 13.8267 27.4474 13.944 27.5114 14.056C27.5807 14.168 27.6767 14.2587 27.7994 14.328C27.9274 14.3973 28.0847 14.432 28.2714 14.432C28.4634 14.432 28.6474 14.3947 28.8234 14.32C28.9994 14.2453 29.1407 14.1493 29.2474 14.032ZM32.9288 14C33.0141 14.064 33.1448 14.128 33.3208 14.192C33.4968 14.2507 33.7048 14.28 33.9448 14.28C34.1795 14.28 34.3688 14.2427 34.5128 14.168C34.6621 14.088 34.7741 13.9707 34.8488 13.816C34.9288 13.656 34.9821 13.4533 35.0088 13.208C35.0408 12.9627 35.0568 12.672 35.0568 12.336V9.32H35.9608V12.208C35.9608 12.6293 35.9368 13.016 35.8888 13.368C35.8461 13.72 35.7581 14.0267 35.6248 14.288C35.4915 14.544 35.2915 14.7413 35.0248 14.88C34.7635 15.0187 34.4115 15.088 33.9688 15.088C33.7075 15.088 33.4755 15.0587 33.2728 15C33.0701 14.9413 32.8835 14.8533 32.7128 14.736L32.9288 14ZM38.8928 15.08C38.5674 15.08 38.2714 15.024 38.0048 14.912C37.7434 14.7947 37.5168 14.6373 37.3248 14.44C37.1328 14.2373 36.9834 14.008 36.8768 13.752C36.7754 13.4907 36.7248 13.2133 36.7248 12.92C36.7248 12.5253 36.8154 12.1653 36.9967 11.84C37.1781 11.5093 37.4314 11.2453 37.7568 11.048C38.0821 10.8453 38.4634 10.744 38.9008 10.744C39.3381 10.744 39.7141 10.8453 40.0288 11.048C40.3488 11.2453 40.5968 11.5067 40.7728 11.832C40.9488 12.1573 41.0368 12.5067 41.0368 12.88C41.0368 12.944 41.0341 13.0053 41.0288 13.064C41.0234 13.1173 41.0181 13.1627 41.0128 13.2H37.6608C37.6768 13.4453 37.7434 13.6613 37.8608 13.848C37.9834 14.0293 38.1381 14.1733 38.3248 14.28C38.5114 14.3813 38.7114 14.432 38.9248 14.432C39.1594 14.432 39.3808 14.3733 39.5888 14.256C39.8021 14.1387 39.9461 13.984 40.0208 13.792L40.7728 14.008C40.6821 14.2107 40.5434 14.3947 40.3568 14.56C40.1754 14.72 39.9594 14.848 39.7088 14.944C39.4581 15.0347 39.1861 15.08 38.8928 15.08ZM37.6368 12.616H40.1648C40.1488 12.376 40.0794 12.1653 39.9568 11.984C39.8394 11.7973 39.6874 11.6533 39.5008 11.552C39.3194 11.4453 39.1168 11.392 38.8928 11.392C38.6741 11.392 38.4714 11.4453 38.2848 11.552C38.1034 11.6533 37.9541 11.7973 37.8368 11.984C37.7194 12.1653 37.6528 12.376 37.6368 12.616ZM46.8534 10.816H47.6934L45.9334 15H45.1814L44.4294 13.112L43.6774 15H42.9254L41.1574 10.816H41.9974L43.3414 14.144L43.9334 12.6L43.2134 10.824H43.9574L44.4294 12.128L44.8934 10.824H45.6374L44.9254 12.6L45.5174 14.144L46.8534 10.816ZM50.0334 15.08C49.708 15.08 49.412 15.024 49.1454 14.912C48.884 14.7947 48.6574 14.6373 48.4654 14.44C48.2734 14.2373 48.124 14.008 48.0174 13.752C47.916 13.4907 47.8654 13.2133 47.8654 12.92C47.8654 12.5253 47.956 12.1653 48.1374 11.84C48.3187 11.5093 48.572 11.2453 48.8974 11.048C49.2227 10.8453 49.604 10.744 50.0414 10.744C50.4787 10.744 50.8547 10.8453 51.1694 11.048C51.4894 11.2453 51.7374 11.5067 51.9134 11.832C52.0894 12.1573 52.1774 12.5067 52.1774 12.88C52.1774 12.944 52.1747 13.0053 52.1694 13.064C52.164 13.1173 52.1587 13.1627 52.1534 13.2H48.8014C48.8174 13.4453 48.884 13.6613 49.0014 13.848C49.124 14.0293 49.2787 14.1733 49.4654 14.28C49.652 14.3813 49.852 14.432 50.0654 14.432C50.3 14.432 50.5214 14.3733 50.7294 14.256C50.9427 14.1387 51.0867 13.984 51.1614 13.792L51.9134 14.008C51.8227 14.2107 51.684 14.3947 51.4974 14.56C51.316 14.72 51.1 14.848 50.8494 14.944C50.5987 15.0347 50.3267 15.08 50.0334 15.08ZM48.7774 12.616H51.3054C51.2894 12.376 51.22 12.1653 51.0974 11.984C50.98 11.7973 50.828 11.6533 50.6414 11.552C50.46 11.4453 50.2574 11.392 50.0334 11.392C49.8147 11.392 49.612 11.4453 49.4254 11.552C49.244 11.6533 49.0947 11.7973 48.9774 11.984C48.86 12.1653 48.7934 12.376 48.7774 12.616ZM52.9032 9.16H53.7832V13.792C53.7832 14.0053 53.8152 14.1413 53.8792 14.2C53.9432 14.2587 54.0232 14.288 54.1192 14.288C54.2259 14.288 54.3245 14.2773 54.4152 14.256C54.5112 14.2347 54.5939 14.208 54.6632 14.176L54.7912 14.872C54.6632 14.9253 54.5112 14.9707 54.3352 15.008C54.1592 15.0453 54.0019 15.064 53.8632 15.064C53.5645 15.064 53.3299 14.9813 53.1592 14.816C52.9885 14.6453 52.9032 14.4107 52.9032 14.112V9.16ZM55.3094 9.16H56.1894V13.792C56.1894 14.0053 56.2214 14.1413 56.2854 14.2C56.3494 14.2587 56.4294 14.288 56.5254 14.288C56.6321 14.288 56.7308 14.2773 56.8214 14.256C56.9174 14.2347 57.0001 14.208 57.0694 14.176L57.1974 14.872C57.0694 14.9253 56.9174 14.9707 56.7414 15.008C56.5654 15.0453 56.4081 15.064 56.2694 15.064C55.9708 15.064 55.7361 14.9813 55.5654 14.816C55.3948 14.6453 55.3094 14.4107 55.3094 14.112V9.16ZM59.6037 15.08C59.2784 15.08 58.9824 15.024 58.7157 14.912C58.4544 14.7947 58.2277 14.6373 58.0357 14.44C57.8437 14.2373 57.6944 14.008 57.5877 13.752C57.4864 13.4907 57.4357 13.2133 57.4357 12.92C57.4357 12.5253 57.5264 12.1653 57.7077 11.84C57.889 11.5093 58.1424 11.2453 58.4677 11.048C58.793 10.8453 59.1744 10.744 59.6117 10.744C60.049 10.744 60.425 10.8453 60.7397 11.048C61.0597 11.2453 61.3077 11.5067 61.4837 11.832C61.6597 12.1573 61.7477 12.5067 61.7477 12.88C61.7477 12.944 61.745 13.0053 61.7397 13.064C61.7344 13.1173 61.729 13.1627 61.7237 13.2H58.3717C58.3877 13.4453 58.4544 13.6613 58.5717 13.848C58.6944 14.0293 58.849 14.1733 59.0357 14.28C59.2224 14.3813 59.4224 14.432 59.6357 14.432C59.8704 14.432 60.0917 14.3733 60.2997 14.256C60.513 14.1387 60.657 13.984 60.7317 13.792L61.4837 14.008C61.393 14.2107 61.2544 14.3947 61.0677 14.56C60.8864 14.72 60.6704 14.848 60.4197 14.944C60.169 15.0347 59.897 15.08 59.6037 15.08ZM58.3477 12.616H60.8757C60.8597 12.376 60.7904 12.1653 60.6677 11.984C60.5504 11.7973 60.3984 11.6533 60.2117 11.552C60.0304 11.4453 59.8277 11.392 59.6037 11.392C59.385 11.392 59.1824 11.4453 58.9957 11.552C58.8144 11.6533 58.665 11.7973 58.5477 11.984C58.4304 12.1653 58.3637 12.376 58.3477 12.616ZM64.8175 11.576C64.4762 11.5813 64.1722 11.6587 63.9055 11.808C63.6442 11.9573 63.4575 12.168 63.3455 12.44V15H62.4655V10.816H63.2815V11.752C63.4255 11.464 63.6148 11.2347 63.8495 11.064C64.0842 10.888 64.3322 10.792 64.5935 10.776C64.6468 10.776 64.6895 10.776 64.7215 10.776C64.7588 10.776 64.7908 10.7787 64.8175 10.784V11.576ZM65.6017 15.984C65.6817 15.9947 65.759 16.0053 65.8337 16.016C65.9137 16.032 65.9777 16.04 66.0257 16.04C66.1164 16.04 66.1937 16.0107 66.2577 15.952C66.327 15.8987 66.3964 15.7973 66.4657 15.648C66.535 15.4987 66.6204 15.2827 66.7217 15L65.0017 10.816H65.9217L67.2017 14.104L68.3377 10.816H69.1857L67.2897 15.968C67.231 16.1227 67.1457 16.264 67.0337 16.392C66.9217 16.5253 66.783 16.6293 66.6177 16.704C66.4524 16.7787 66.2577 16.816 66.0337 16.816C65.9697 16.816 65.903 16.8107 65.8337 16.8C65.7644 16.7893 65.687 16.7733 65.6017 16.752V15.984ZM71.5583 13.208V12.416H73.9503V13.208H71.5583ZM77.0541 15V9.32H79.4381C79.6941 9.32 79.9287 9.37333 80.1421 9.48C80.3554 9.58667 80.5421 9.728 80.7021 9.904C80.8621 10.08 80.9847 10.2773 81.0701 10.496C81.1554 10.7147 81.1981 10.9387 81.1981 11.168C81.1981 11.4827 81.1261 11.784 80.9821 12.072C80.8434 12.3547 80.6434 12.584 80.3821 12.76C80.1261 12.936 79.8274 13.024 79.4861 13.024H77.9501V15H77.0541ZM77.9501 12.232H79.4301C79.6007 12.232 79.7501 12.1867 79.8781 12.096C80.0061 12 80.1047 11.872 80.1741 11.712C80.2487 11.552 80.2861 11.3707 80.2861 11.168C80.2861 10.96 80.2434 10.776 80.1581 10.616C80.0727 10.456 79.9607 10.3333 79.8221 10.248C79.6887 10.1573 79.5421 10.112 79.3821 10.112H77.9501V12.232ZM81.8864 13.376V10.816H82.7664V13.2C82.7664 13.5733 82.8331 13.856 82.9664 14.048C83.1051 14.2347 83.3051 14.328 83.5664 14.328C83.7318 14.328 83.8918 14.2933 84.0464 14.224C84.2064 14.1547 84.3504 14.0533 84.4784 13.92C84.6118 13.7813 84.7184 13.616 84.7984 13.424V10.816H85.6784V14.008C85.6784 14.1093 85.6971 14.1813 85.7344 14.224C85.7718 14.2667 85.8331 14.2907 85.9184 14.296V15C85.8278 15.016 85.7531 15.0267 85.6944 15.032C85.6358 15.0373 85.5798 15.04 85.5264 15.04C85.3664 15.04 85.2331 14.9973 85.1264 14.912C85.0198 14.8213 84.9584 14.7067 84.9424 14.568L84.9264 14.152C84.7398 14.456 84.4971 14.688 84.1984 14.848C83.8998 15.0027 83.5718 15.08 83.2144 15.08C82.7771 15.08 82.4464 14.936 82.2224 14.648C81.9984 14.36 81.8864 13.936 81.8864 13.376ZM89.1216 14.784C89.047 14.8213 88.9536 14.8613 88.8416 14.904C88.7296 14.9467 88.6016 14.984 88.4576 15.016C88.319 15.048 88.175 15.064 88.0256 15.064C87.8443 15.064 87.6763 15.032 87.5216 14.968C87.367 14.904 87.2416 14.8027 87.1456 14.664C87.055 14.52 87.0096 14.336 87.0096 14.112V11.496H86.4576V10.816H87.0096V9.44H87.8896V10.816H88.8016V11.496H87.8896V13.832C87.9003 13.976 87.9456 14.0827 88.0256 14.152C88.111 14.2213 88.215 14.256 88.3376 14.256C88.4603 14.256 88.5776 14.2347 88.6896 14.192C88.8016 14.1493 88.8843 14.1147 88.9376 14.088L89.1216 14.784ZM93.4831 15H92.6031V12.656C92.6031 12.2773 92.5338 11.9947 92.3951 11.808C92.2565 11.6213 92.0618 11.528 91.8111 11.528C91.6565 11.528 91.4965 11.5707 91.3311 11.656C91.1658 11.7413 91.0191 11.8587 90.8911 12.008C90.7631 12.152 90.6698 12.32 90.6111 12.512V15H89.7311V9.16H90.6111V11.656C90.7711 11.3733 90.9898 11.152 91.2671 10.992C91.5445 10.8267 91.8431 10.744 92.1631 10.744C92.4245 10.744 92.6405 10.7893 92.8111 10.88C92.9818 10.9707 93.1151 11.096 93.2111 11.256C93.3125 11.4107 93.3818 11.592 93.4191 11.8C93.4618 12.0027 93.4831 12.2187 93.4831 12.448V15ZM94.4646 13.376V10.816H95.3446V13.2C95.3446 13.5733 95.4112 13.856 95.5446 14.048C95.6832 14.2347 95.8832 14.328 96.1446 14.328C96.3099 14.328 96.4699 14.2933 96.6246 14.224C96.7846 14.1547 96.9286 14.0533 97.0566 13.92C97.1899 13.7813 97.2966 13.616 97.3766 13.424V10.816H98.2566V14.008C98.2566 14.1093 98.2752 14.1813 98.3126 14.224C98.3499 14.2667 98.4112 14.2907 98.4966 14.296V15C98.4059 15.016 98.3312 15.0267 98.2726 15.032C98.2139 15.0373 98.1579 15.04 98.1046 15.04C97.9446 15.04 97.8112 14.9973 97.7046 14.912C97.5979 14.8213 97.5366 14.7067 97.5206 14.568L97.5046 14.152C97.3179 14.456 97.0752 14.688 96.7766 14.848C96.4779 15.0027 96.1499 15.08 95.7926 15.08C95.3552 15.08 95.0246 14.936 94.8006 14.648C94.5766 14.36 94.4646 13.936 94.4646 13.376ZM102.292 15L100.948 13.072L100.26 13.728V15H99.3796V9.16H100.26V12.84L102.196 10.824H103.14L101.516 12.576L103.228 15H102.292ZM103.443 13.776C103.443 13.5093 103.517 13.2773 103.667 13.08C103.821 12.8773 104.032 12.7227 104.299 12.616C104.565 12.504 104.875 12.448 105.227 12.448C105.413 12.448 105.603 12.4613 105.795 12.488C105.992 12.5147 106.165 12.5573 106.315 12.616V12.352C106.315 12.0587 106.227 11.8293 106.051 11.664C105.875 11.4987 105.621 11.416 105.291 11.416C105.056 11.416 104.835 11.4587 104.627 11.544C104.419 11.624 104.197 11.7387 103.963 11.888L103.667 11.296C103.944 11.1093 104.221 10.9707 104.499 10.88C104.781 10.7893 105.077 10.744 105.387 10.744C105.947 10.744 106.387 10.8933 106.707 11.192C107.032 11.4853 107.195 11.904 107.195 12.448V14.008C107.195 14.1093 107.211 14.1813 107.243 14.224C107.28 14.2667 107.341 14.2907 107.427 14.296V15C107.347 15.016 107.275 15.0267 107.211 15.032C107.147 15.0373 107.093 15.04 107.051 15.04C106.864 15.04 106.723 14.9947 106.627 14.904C106.531 14.8133 106.475 14.7067 106.459 14.584L106.435 14.344C106.253 14.5787 106.021 14.76 105.739 14.888C105.456 15.016 105.171 15.08 104.883 15.08C104.605 15.08 104.357 15.024 104.139 14.912C103.92 14.7947 103.749 14.6373 103.627 14.44C103.504 14.2427 103.443 14.0213 103.443 13.776ZM106.107 14.032C106.171 13.9627 106.221 13.8933 106.259 13.824C106.296 13.7547 106.315 13.6933 106.315 13.64V13.16C106.165 13.1013 106.008 13.0587 105.843 13.032C105.677 13 105.515 12.984 105.355 12.984C105.035 12.984 104.773 13.048 104.571 13.176C104.373 13.304 104.275 13.48 104.275 13.704C104.275 13.8267 104.307 13.944 104.371 14.056C104.44 14.168 104.536 14.2587 104.659 14.328C104.787 14.3973 104.944 14.432 105.131 14.432C105.323 14.432 105.507 14.3947 105.683 14.32C105.859 14.2453 106 14.1493 106.107 14.032ZM107.998 12.912C107.998 12.512 108.078 12.1493 108.238 11.824C108.404 11.4933 108.628 11.232 108.91 11.04C109.193 10.8427 109.518 10.744 109.886 10.744C110.206 10.744 110.494 10.8267 110.75 10.992C111.012 11.1573 111.214 11.3627 111.358 11.608V9.16H112.238V14.008C112.238 14.1093 112.257 14.1813 112.294 14.224C112.332 14.2667 112.393 14.2907 112.478 14.296V15C112.313 15.0267 112.185 15.04 112.094 15.04C111.929 15.04 111.788 14.992 111.67 14.896C111.558 14.8 111.5 14.6853 111.494 14.552L111.486 14.24C111.326 14.5067 111.11 14.7147 110.838 14.864C110.566 15.008 110.284 15.08 109.99 15.08C109.702 15.08 109.436 15.024 109.19 14.912C108.95 14.8 108.74 14.6427 108.558 14.44C108.382 14.2373 108.244 14.0053 108.142 13.744C108.046 13.4827 107.998 13.2053 107.998 12.912ZM111.358 13.496V12.4C111.3 12.2293 111.204 12.0773 111.07 11.944C110.942 11.8053 110.796 11.696 110.63 11.616C110.47 11.536 110.31 11.496 110.15 11.496C109.964 11.496 109.793 11.536 109.638 11.616C109.489 11.696 109.358 11.8027 109.246 11.936C109.14 12.0693 109.057 12.2213 108.998 12.392C108.94 12.5627 108.91 12.7413 108.91 12.928C108.91 13.12 108.942 13.3013 109.006 13.472C109.07 13.6373 109.161 13.7867 109.278 13.92C109.401 14.048 109.54 14.1493 109.694 14.224C109.854 14.2933 110.028 14.328 110.214 14.328C110.332 14.328 110.449 14.3067 110.566 14.264C110.689 14.2213 110.804 14.1627 110.91 14.088C111.022 14.0133 111.116 13.9253 111.19 13.824C111.27 13.7227 111.326 13.6133 111.358 13.496Z" fill="white"/>
<path d="M12.308 25C12.308 24.8413 12.322 24.6827 12.35 24.524C12.378 24.3607 12.4317 24.1997 12.511 24.041C12.5903 23.8823 12.707 23.7307 12.861 23.586C13.015 23.4367 13.218 23.2967 13.47 23.166C13.6053 23.096 13.7453 23.0283 13.89 22.963C14.0347 22.893 14.17 22.8183 14.296 22.739C14.4267 22.655 14.5293 22.5617 14.604 22.459C14.6833 22.3517 14.723 22.2257 14.723 22.081C14.723 21.9643 14.688 21.85 14.618 21.738C14.5527 21.626 14.45 21.535 14.31 21.465C14.1747 21.395 14.0043 21.36 13.799 21.36C13.6497 21.36 13.5143 21.381 13.393 21.423C13.2717 21.465 13.1643 21.5187 13.071 21.584C12.9777 21.6447 12.8983 21.7077 12.833 21.773C12.7677 21.8337 12.714 21.885 12.672 21.927L12.371 21.598C12.3943 21.57 12.4457 21.521 12.525 21.451C12.609 21.3763 12.714 21.2993 12.84 21.22C12.9707 21.1407 13.1223 21.073 13.295 21.017C13.4723 20.961 13.666 20.933 13.876 20.933C14.1607 20.933 14.4033 20.9843 14.604 21.087C14.8093 21.185 14.9657 21.318 15.073 21.486C15.1803 21.654 15.234 21.836 15.234 22.032C15.234 22.2233 15.192 22.389 15.108 22.529C15.0287 22.6643 14.9237 22.7833 14.793 22.886C14.667 22.984 14.534 23.0703 14.394 23.145C14.2587 23.215 14.135 23.2757 14.023 23.327C13.8037 23.4297 13.6193 23.5323 13.47 23.635C13.3207 23.7377 13.2017 23.8427 13.113 23.95C13.0243 24.0527 12.9543 24.1553 12.903 24.258C12.8563 24.356 12.8237 24.4587 12.805 24.566H15.311V25H12.308ZM19.4514 23.621C19.4514 23.9103 19.3697 24.1623 19.2064 24.377C19.0477 24.5917 18.8354 24.7597 18.5694 24.881C18.3081 24.9977 18.0211 25.056 17.7084 25.056C17.3771 25.056 17.0831 24.9907 16.8264 24.86C16.5697 24.7247 16.3667 24.5473 16.2174 24.328C16.0727 24.1087 16.0004 23.8637 16.0004 23.593C16.0004 23.383 16.0494 23.194 16.1474 23.026C16.2501 22.8533 16.3761 22.7087 16.5254 22.592C16.6794 22.4753 16.8357 22.3913 16.9944 22.34C16.8497 22.2793 16.7144 22.2 16.5884 22.102C16.4624 21.9993 16.3621 21.8803 16.2874 21.745C16.2127 21.6097 16.1754 21.4603 16.1754 21.297C16.1754 21.0917 16.2197 20.912 16.3084 20.758C16.4017 20.5993 16.5231 20.4663 16.6724 20.359C16.8217 20.247 16.9874 20.1653 17.1694 20.114C17.3561 20.058 17.5427 20.03 17.7294 20.03C17.9114 20.03 18.0934 20.058 18.2754 20.114C18.4621 20.1653 18.6301 20.2447 18.7794 20.352C18.9334 20.4593 19.0547 20.5923 19.1434 20.751C19.2367 20.905 19.2834 21.0847 19.2834 21.29C19.2834 21.4533 19.2437 21.605 19.1644 21.745C19.0897 21.8803 18.9894 21.9993 18.8634 22.102C18.7374 22.2 18.5997 22.2793 18.4504 22.34C18.6324 22.4007 18.7981 22.494 18.9474 22.62C19.1014 22.7413 19.2227 22.886 19.3114 23.054C19.4047 23.222 19.4514 23.411 19.4514 23.621ZM18.9684 23.586C18.9684 23.418 18.9311 23.271 18.8564 23.145C18.7864 23.0143 18.6884 22.9047 18.5624 22.816C18.4411 22.7273 18.3057 22.6597 18.1564 22.613C18.0117 22.5663 17.8647 22.543 17.7154 22.543C17.5147 22.543 17.3187 22.5873 17.1274 22.676C16.9407 22.76 16.7867 22.8813 16.6654 23.04C16.5487 23.194 16.4904 23.3783 16.4904 23.593C16.4904 23.7563 16.5254 23.901 16.5954 24.027C16.6701 24.153 16.7681 24.2627 16.8894 24.356C17.0107 24.4447 17.1437 24.5123 17.2884 24.559C17.4377 24.6057 17.5871 24.629 17.7364 24.629C17.9371 24.629 18.1307 24.587 18.3174 24.503C18.5087 24.4143 18.6651 24.2907 18.7864 24.132C18.9077 23.9733 18.9684 23.7913 18.9684 23.586ZM16.6514 21.318C16.6514 21.4953 16.7051 21.6493 16.8124 21.78C16.9244 21.906 17.0644 22.0017 17.2324 22.067C17.4004 22.1323 17.5637 22.165 17.7224 22.165C17.8904 22.165 18.0561 22.1323 18.2194 22.067C18.3874 21.997 18.5251 21.899 18.6324 21.773C18.7444 21.6423 18.8004 21.486 18.8004 21.304C18.8004 21.1267 18.7491 20.975 18.6464 20.849C18.5437 20.723 18.4084 20.6273 18.2404 20.562C18.0771 20.4967 17.9021 20.464 17.7154 20.464C17.5381 20.464 17.3654 20.499 17.1974 20.569C17.0341 20.6343 16.9011 20.7323 16.7984 20.863C16.7004 20.989 16.6514 21.1407 16.6514 21.318ZM20.4018 25.567L20.5208 24.979H20.3598V24.314H20.8218V24.979L20.6468 25.567H20.4018ZM26.6843 20.961C26.6143 20.8817 26.5326 20.8117 26.4393 20.751C26.3459 20.6857 26.2409 20.6297 26.1243 20.583C26.0076 20.5363 25.8816 20.499 25.7463 20.471C25.6156 20.443 25.4756 20.429 25.3263 20.429C24.8923 20.429 24.5726 20.513 24.3673 20.681C24.1666 20.8443 24.0663 21.0683 24.0663 21.353C24.0663 21.549 24.1129 21.703 24.2063 21.815C24.3043 21.927 24.4559 22.018 24.6613 22.088C24.8666 22.158 25.1279 22.2303 25.4453 22.305C25.7999 22.3797 26.1056 22.4683 26.3623 22.571C26.6189 22.6737 26.8173 22.8137 26.9573 22.991C27.0973 23.1637 27.1673 23.3993 27.1673 23.698C27.1673 23.9267 27.1229 24.125 27.0343 24.293C26.9456 24.461 26.8219 24.601 26.6633 24.713C26.5046 24.825 26.3156 24.909 26.0963 24.965C25.8769 25.0163 25.6366 25.042 25.3753 25.042C25.1186 25.042 24.8713 25.0163 24.6333 24.965C24.3999 24.909 24.1783 24.8297 23.9683 24.727C23.7583 24.6197 23.5623 24.4843 23.3803 24.321L23.6253 23.922C23.7139 24.0153 23.8189 24.104 23.9403 24.188C24.0663 24.2673 24.2039 24.3397 24.3533 24.405C24.5073 24.4703 24.6706 24.5217 24.8433 24.559C25.0206 24.5917 25.2026 24.608 25.3893 24.608C25.7859 24.608 26.0939 24.5357 26.3133 24.391C26.5373 24.2463 26.6493 24.0317 26.6493 23.747C26.6493 23.5417 26.5933 23.3783 26.4813 23.257C26.3693 23.131 26.2013 23.0283 25.9773 22.949C25.7533 22.8697 25.4779 22.7927 25.1513 22.718C24.8059 22.6387 24.5143 22.55 24.2763 22.452C24.0383 22.354 23.8586 22.2257 23.7373 22.067C23.6206 21.9037 23.5623 21.689 23.5623 21.423C23.5623 21.115 23.6369 20.856 23.7863 20.646C23.9403 20.4313 24.1503 20.2703 24.4163 20.163C24.6823 20.051 24.9879 19.995 25.3333 19.995C25.5526 19.995 25.7556 20.0183 25.9423 20.065C26.1336 20.107 26.3086 20.17 26.4673 20.254C26.6306 20.338 26.7823 20.443 26.9223 20.569L26.6843 20.961ZM29.5082 25.07C29.2469 25.07 29.0042 25.021 28.7802 24.923C28.5562 24.8203 28.3625 24.6827 28.1992 24.51C28.0359 24.3327 27.9075 24.1297 27.8142 23.901C27.7255 23.6723 27.6812 23.4273 27.6812 23.166C27.6812 22.8253 27.7582 22.5127 27.9122 22.228C28.0709 21.9433 28.2879 21.717 28.5632 21.549C28.8385 21.3763 29.1512 21.29 29.5012 21.29C29.8605 21.29 30.1732 21.3763 30.4392 21.549C30.7099 21.7217 30.9222 21.9503 31.0762 22.235C31.2302 22.515 31.3072 22.823 31.3072 23.159C31.3072 23.1963 31.3072 23.2337 31.3072 23.271C31.3072 23.3037 31.3049 23.3293 31.3002 23.348H28.1782C28.2015 23.6093 28.2739 23.8427 28.3952 24.048C28.5212 24.2487 28.6822 24.4097 28.8782 24.531C29.0789 24.6477 29.2959 24.706 29.5292 24.706C29.7672 24.706 29.9912 24.6453 30.2012 24.524C30.4159 24.4027 30.5652 24.244 30.6492 24.048L31.0622 24.16C30.9875 24.3327 30.8732 24.489 30.7192 24.629C30.5652 24.769 30.3832 24.8787 30.1732 24.958C29.9679 25.0327 29.7462 25.07 29.5082 25.07ZM28.1642 23.005H30.8592C30.8405 22.739 30.7682 22.5057 30.6422 22.305C30.5209 22.1043 30.3599 21.948 30.1592 21.836C29.9632 21.7193 29.7462 21.661 29.5082 21.661C29.2702 21.661 29.0532 21.7193 28.8572 21.836C28.6612 21.948 28.5002 22.1067 28.3742 22.312C28.2529 22.5127 28.1829 22.7437 28.1642 23.005ZM33.8616 21.773C33.5443 21.7823 33.2643 21.871 33.0216 22.039C32.7836 22.207 32.6156 22.438 32.5176 22.732V25H32.0416V21.353H32.4896V22.228C32.6156 21.9713 32.7813 21.7637 32.9866 21.605C33.1966 21.4463 33.4183 21.3577 33.6516 21.339C33.6983 21.3343 33.7379 21.332 33.7706 21.332C33.8079 21.332 33.8383 21.3343 33.8616 21.339V21.773ZM35.5807 25L34.1037 21.353H34.6007L35.8467 24.524L37.0997 21.353H37.5687L36.0917 25H35.5807ZM38.2281 25V21.353H38.7041V25H38.2281ZM38.2281 20.59V19.89H38.7041V20.59H38.2281ZM41.3345 25.07C41.0685 25.07 40.8235 25.021 40.5995 24.923C40.3802 24.8203 40.1865 24.6803 40.0185 24.503C39.8552 24.3257 39.7269 24.1227 39.6335 23.894C39.5449 23.6653 39.5005 23.4227 39.5005 23.166C39.5005 22.8207 39.5775 22.5057 39.7315 22.221C39.8855 21.9363 40.1002 21.71 40.3755 21.542C40.6509 21.374 40.9682 21.29 41.3275 21.29C41.6682 21.29 41.9692 21.3693 42.2305 21.528C42.4919 21.682 42.6855 21.892 42.8115 22.158L42.3495 22.305C42.2469 22.1183 42.1022 21.9737 41.9155 21.871C41.7335 21.7637 41.5305 21.71 41.3065 21.71C41.0639 21.71 40.8422 21.773 40.6415 21.899C40.4409 22.025 40.2799 22.1977 40.1585 22.417C40.0419 22.6363 39.9835 22.886 39.9835 23.166C39.9835 23.4413 40.0442 23.691 40.1655 23.915C40.2869 24.139 40.4479 24.3187 40.6485 24.454C40.8492 24.5847 41.0709 24.65 41.3135 24.65C41.4722 24.65 41.6239 24.622 41.7685 24.566C41.9179 24.51 42.0462 24.4353 42.1535 24.342C42.2655 24.244 42.3402 24.139 42.3775 24.027L42.8465 24.167C42.7812 24.3397 42.6715 24.496 42.5175 24.636C42.3682 24.7713 42.1909 24.8787 41.9855 24.958C41.7849 25.0327 41.5679 25.07 41.3345 25.07ZM45.1352 25.07C44.8738 25.07 44.6312 25.021 44.4072 24.923C44.1832 24.8203 43.9895 24.6827 43.8262 24.51C43.6628 24.3327 43.5345 24.1297 43.4412 23.901C43.3525 23.6723 43.3082 23.4273 43.3082 23.166C43.3082 22.8253 43.3852 22.5127 43.5392 22.228C43.6978 21.9433 43.9148 21.717 44.1902 21.549C44.4655 21.3763 44.7782 21.29 45.1282 21.29C45.4875 21.29 45.8002 21.3763 46.0662 21.549C46.3368 21.7217 46.5492 21.9503 46.7032 22.235C46.8572 22.515 46.9342 22.823 46.9342 23.159C46.9342 23.1963 46.9342 23.2337 46.9342 23.271C46.9342 23.3037 46.9318 23.3293 46.9272 23.348H43.8052C43.8285 23.6093 43.9008 23.8427 44.0222 24.048C44.1482 24.2487 44.3092 24.4097 44.5052 24.531C44.7058 24.6477 44.9228 24.706 45.1562 24.706C45.3942 24.706 45.6182 24.6453 45.8282 24.524C46.0428 24.4027 46.1922 24.244 46.2762 24.048L46.6892 24.16C46.6145 24.3327 46.5002 24.489 46.3462 24.629C46.1922 24.769 46.0102 24.8787 45.8002 24.958C45.5948 25.0327 45.3732 25.07 45.1352 25.07ZM43.7912 23.005H46.4862C46.4675 22.739 46.3952 22.5057 46.2692 22.305C46.1478 22.1043 45.9868 21.948 45.7862 21.836C45.5902 21.7193 45.3732 21.661 45.1352 21.661C44.8972 21.661 44.6802 21.7193 44.4842 21.836C44.2882 21.948 44.1272 22.1067 44.0012 22.312C43.8798 22.5127 43.8098 22.7437 43.7912 23.005ZM49.5507 25V20.03H51.6507C51.8654 20.03 52.0614 20.0743 52.2387 20.163C52.4161 20.2517 52.5701 20.373 52.7007 20.527C52.8361 20.6763 52.9387 20.8443 53.0087 21.031C53.0834 21.213 53.1207 21.3997 53.1207 21.591C53.1207 21.829 53.0741 22.053 52.9807 22.263C52.8921 22.473 52.7637 22.6503 52.5957 22.795C52.4324 22.9397 52.2387 23.0353 52.0147 23.082L53.2327 25H52.6797L51.5107 23.166H50.0407V25H49.5507ZM50.0407 22.732H51.6647C51.8607 22.732 52.0311 22.6783 52.1757 22.571C52.3204 22.4637 52.4324 22.3237 52.5117 22.151C52.5911 21.9737 52.6307 21.787 52.6307 21.591C52.6307 21.3903 52.5841 21.206 52.4907 21.038C52.4021 20.8653 52.2807 20.7277 52.1267 20.625C51.9774 20.5177 51.8094 20.464 51.6227 20.464H50.0407V22.732ZM55.4706 25.07C55.2093 25.07 54.9666 25.021 54.7426 24.923C54.5233 24.8203 54.3319 24.6827 54.1686 24.51C54.0099 24.3327 53.8863 24.132 53.7976 23.908C53.7089 23.6793 53.6646 23.439 53.6646 23.187C53.6646 22.9257 53.7089 22.683 53.7976 22.459C53.8863 22.2303 54.0123 22.0297 54.1756 21.857C54.3389 21.6797 54.5303 21.542 54.7496 21.444C54.9736 21.3413 55.2163 21.29 55.4776 21.29C55.7389 21.29 55.9793 21.3413 56.1986 21.444C56.4179 21.542 56.6093 21.6797 56.7726 21.857C56.9359 22.0297 57.0619 22.2303 57.1506 22.459C57.2393 22.683 57.2836 22.9257 57.2836 23.187C57.2836 23.439 57.2393 23.6793 57.1506 23.908C57.0619 24.132 56.9359 24.3327 56.7726 24.51C56.6139 24.6827 56.4226 24.8203 56.1986 24.923C55.9793 25.021 55.7366 25.07 55.4706 25.07ZM54.1476 23.194C54.1476 23.4647 54.2059 23.712 54.3226 23.936C54.4439 24.1553 54.6049 24.3303 54.8056 24.461C55.0063 24.587 55.2279 24.65 55.4706 24.65C55.7133 24.65 55.9349 24.5847 56.1356 24.454C56.3363 24.3233 56.4973 24.146 56.6186 23.922C56.7399 23.6933 56.8006 23.446 56.8006 23.18C56.8006 22.9093 56.7399 22.662 56.6186 22.438C56.4973 22.214 56.3363 22.0367 56.1356 21.906C55.9349 21.7753 55.7133 21.71 55.4706 21.71C55.2279 21.71 55.0063 21.7777 54.8056 21.913C54.6096 22.0483 54.4509 22.228 54.3296 22.452C54.2083 22.6713 54.1476 22.9187 54.1476 23.194ZM57.7857 23.95C57.7857 23.7213 57.851 23.5253 57.9817 23.362C58.1124 23.194 58.292 23.0657 58.5207 22.977C58.754 22.8837 59.0224 22.837 59.3257 22.837C59.503 22.837 59.6874 22.851 59.8787 22.879C60.07 22.907 60.2404 22.949 60.3897 23.005V22.697C60.3897 22.389 60.2987 22.144 60.1167 21.962C59.9347 21.78 59.6827 21.689 59.3607 21.689C59.1647 21.689 58.971 21.7263 58.7797 21.801C58.593 21.871 58.397 21.976 58.1917 22.116L58.0097 21.78C58.2477 21.6167 58.481 21.4953 58.7097 21.416C58.9384 21.332 59.1717 21.29 59.4097 21.29C59.8577 21.29 60.2124 21.4183 60.4737 21.675C60.735 21.9317 60.8657 22.2863 60.8657 22.739V24.426C60.8657 24.4913 60.8797 24.5403 60.9077 24.573C60.9357 24.601 60.98 24.6173 61.0407 24.622V25C60.9894 25.0047 60.945 25.0093 60.9077 25.014C60.8704 25.0187 60.8424 25.0187 60.8237 25.014C60.707 25.0093 60.6184 24.972 60.5577 24.902C60.497 24.832 60.4644 24.7573 60.4597 24.678L60.4527 24.412C60.2894 24.622 60.077 24.7853 59.8157 24.902C59.5544 25.014 59.2884 25.07 59.0177 25.07C58.7844 25.07 58.572 25.021 58.3807 24.923C58.194 24.8203 58.047 24.685 57.9397 24.517C57.837 24.3443 57.7857 24.1553 57.7857 23.95ZM60.2287 24.23C60.28 24.1647 60.3197 24.1017 60.3477 24.041C60.3757 23.9803 60.3897 23.9267 60.3897 23.88V23.348C60.231 23.2873 60.0654 23.2407 59.8927 23.208C59.7247 23.1753 59.5544 23.159 59.3817 23.159C59.041 23.159 58.7657 23.2267 58.5557 23.362C58.3457 23.4973 58.2407 23.6817 58.2407 23.915C58.2407 24.0503 58.2757 24.1787 58.3457 24.3C58.4157 24.4167 58.5184 24.5147 58.6537 24.594C58.789 24.6687 58.9477 24.706 59.1297 24.706C59.3584 24.706 59.5707 24.6617 59.7667 24.573C59.9674 24.4843 60.1214 24.37 60.2287 24.23ZM61.6491 23.187C61.6491 22.8417 61.7191 22.5267 61.8591 22.242C62.0038 21.9527 62.2021 21.7217 62.4541 21.549C62.7061 21.3763 62.9931 21.29 63.3151 21.29C63.6185 21.29 63.8891 21.3717 64.1271 21.535C64.3698 21.6937 64.5588 21.8873 64.6941 22.116V19.89H65.1701V24.426C65.1701 24.4913 65.1841 24.5403 65.2121 24.573C65.2401 24.601 65.2821 24.6173 65.3381 24.622V25C65.2448 25.014 65.1725 25.0187 65.1211 25.014C65.0231 25.0093 64.9368 24.9697 64.8621 24.895C64.7875 24.8203 64.7501 24.7387 64.7501 24.65V24.293C64.6055 24.531 64.4095 24.72 64.1621 24.86C63.9148 25 63.6581 25.07 63.3921 25.07C63.1401 25.07 62.9068 25.0187 62.6921 24.916C62.4821 24.8133 62.2978 24.6733 62.1391 24.496C61.9851 24.3187 61.8638 24.118 61.7751 23.894C61.6911 23.6653 61.6491 23.4297 61.6491 23.187ZM64.6941 23.747V22.62C64.6335 22.452 64.5355 22.3003 64.4001 22.165C64.2648 22.025 64.1108 21.9153 63.9381 21.836C63.7701 21.752 63.6021 21.71 63.4341 21.71C63.2381 21.71 63.0608 21.752 62.9021 21.836C62.7435 21.9153 62.6058 22.025 62.4891 22.165C62.3771 22.305 62.2908 22.4637 62.2301 22.641C62.1695 22.8183 62.1391 23.0003 62.1391 23.187C62.1391 23.383 62.1718 23.5697 62.2371 23.747C62.3071 23.9243 62.4051 24.083 62.5311 24.223C62.6571 24.3583 62.8018 24.4633 62.9651 24.538C63.1285 24.6127 63.3058 24.65 63.4971 24.65C63.6185 24.65 63.7445 24.6267 63.8751 24.58C64.0058 24.5333 64.1295 24.4703 64.2461 24.391C64.3675 24.307 64.4678 24.209 64.5471 24.097C64.6265 23.985 64.6755 23.8683 64.6941 23.747ZM66.3256 25.567L66.4446 24.979H66.2836V24.314H66.7456V24.979L66.5706 25.567H66.3256ZM69.7031 25V20.03H71.7611C71.9757 20.03 72.1717 20.0743 72.3491 20.163C72.5311 20.2517 72.6874 20.373 72.8181 20.527C72.9487 20.6763 73.0514 20.8443 73.1261 21.031C73.2007 21.213 73.2381 21.3997 73.2381 21.591C73.2381 21.8617 73.1774 22.1183 73.0561 22.361C72.9394 22.599 72.7737 22.7927 72.5591 22.942C72.3444 23.0913 72.0924 23.166 71.8031 23.166H70.1931V25H69.7031ZM70.1931 22.732H71.7821C71.9781 22.732 72.1484 22.6783 72.2931 22.571C72.4377 22.4637 72.5497 22.3237 72.6291 22.151C72.7084 21.9783 72.7481 21.7917 72.7481 21.591C72.7481 21.3857 72.7014 21.1967 72.6081 21.024C72.5147 20.8513 72.3911 20.716 72.2371 20.618C72.0877 20.5153 71.9221 20.464 71.7401 20.464H70.1931V22.732ZM73.9246 23.495V21.353H74.4006V23.411C74.4006 23.8263 74.4706 24.1367 74.6106 24.342C74.7552 24.5473 74.9676 24.65 75.2476 24.65C75.4342 24.65 75.6139 24.6103 75.7866 24.531C75.9639 24.447 76.1202 24.3303 76.2556 24.181C76.3909 24.027 76.4936 23.8497 76.5636 23.649V21.353H77.0396V24.426C77.0396 24.4913 77.0536 24.5403 77.0816 24.573C77.1096 24.601 77.1516 24.6173 77.2076 24.622V25C77.1516 25.0047 77.1072 25.007 77.0746 25.007C77.0419 25.0117 77.0116 25.014 76.9836 25.014C76.8902 25.0047 76.8086 24.9673 76.7386 24.902C76.6732 24.8367 76.6382 24.7573 76.6336 24.664L76.6196 24.174C76.4609 24.454 76.2439 24.6733 75.9686 24.832C75.6979 24.9907 75.4039 25.07 75.0866 25.07C74.7039 25.07 74.4146 24.937 74.2186 24.671C74.0226 24.405 73.9246 24.013 73.9246 23.495ZM79.8658 24.825C79.8285 24.839 79.7702 24.8647 79.6908 24.902C79.6115 24.9393 79.5158 24.972 79.4038 25C79.2918 25.028 79.1705 25.042 79.0398 25.042C78.9045 25.042 78.7762 25.0163 78.6548 24.965C78.5382 24.9137 78.4448 24.8367 78.3748 24.734C78.3048 24.6267 78.2698 24.496 78.2698 24.342V21.731H77.7658V21.353H78.2698V20.121H78.7458V21.353H79.5858V21.731H78.7458V24.209C78.7552 24.3397 78.8018 24.4377 78.8858 24.503C78.9745 24.5683 79.0748 24.601 79.1868 24.601C79.3175 24.601 79.4365 24.58 79.5438 24.538C79.6512 24.4913 79.7165 24.4587 79.7398 24.44L79.8658 24.825ZM83.5265 25H83.0505V22.963C83.0505 22.5523 82.9782 22.2443 82.8335 22.039C82.6889 21.829 82.4812 21.724 82.2105 21.724C82.0332 21.724 81.8559 21.7707 81.6785 21.864C81.5059 21.9527 81.3519 22.0763 81.2165 22.235C81.0859 22.389 80.9925 22.5663 80.9365 22.767V25H80.4605V19.89H80.9365V22.179C81.0812 21.9083 81.2819 21.6937 81.5385 21.535C81.7999 21.3717 82.0775 21.29 82.3715 21.29C82.5815 21.29 82.7589 21.3273 82.9035 21.402C83.0529 21.4767 83.1719 21.5863 83.2605 21.731C83.3539 21.871 83.4215 22.0367 83.4635 22.228C83.5055 22.4147 83.5265 22.627 83.5265 22.865V25ZM84.5066 23.495V21.353H84.9826V23.411C84.9826 23.8263 85.0526 24.1367 85.1926 24.342C85.3373 24.5473 85.5496 24.65 85.8296 24.65C86.0163 24.65 86.1959 24.6103 86.3686 24.531C86.5459 24.447 86.7023 24.3303 86.8376 24.181C86.9729 24.027 87.0756 23.8497 87.1456 23.649V21.353H87.6216V24.426C87.6216 24.4913 87.6356 24.5403 87.6636 24.573C87.6916 24.601 87.7336 24.6173 87.7896 24.622V25C87.7336 25.0047 87.6893 25.007 87.6566 25.007C87.6239 25.0117 87.5936 25.014 87.5656 25.014C87.4723 25.0047 87.3906 24.9673 87.3206 24.902C87.2553 24.8367 87.2203 24.7573 87.2156 24.664L87.2016 24.174C87.0429 24.454 86.8259 24.6733 86.5506 24.832C86.2799 24.9907 85.9859 25.07 85.6686 25.07C85.2859 25.07 84.9966 24.937 84.8006 24.671C84.6046 24.405 84.5066 24.013 84.5066 23.495ZM91.3019 25L89.9509 23.131L89.1739 23.859V25H88.6979V19.89H89.1739V23.348L91.2389 21.36H91.7639L90.2729 22.851L91.8199 25H91.3019ZM92.1021 23.95C92.1021 23.7213 92.1674 23.5253 92.2981 23.362C92.4288 23.194 92.6084 23.0657 92.8371 22.977C93.0704 22.8837 93.3388 22.837 93.6421 22.837C93.8194 22.837 94.0038 22.851 94.1951 22.879C94.3864 22.907 94.5568 22.949 94.7061 23.005V22.697C94.7061 22.389 94.6151 22.144 94.4331 21.962C94.2511 21.78 93.9991 21.689 93.6771 21.689C93.4811 21.689 93.2874 21.7263 93.0961 21.801C92.9094 21.871 92.7134 21.976 92.5081 22.116L92.3261 21.78C92.5641 21.6167 92.7974 21.4953 93.0261 21.416C93.2548 21.332 93.4881 21.29 93.7261 21.29C94.1741 21.29 94.5288 21.4183 94.7901 21.675C95.0514 21.9317 95.1821 22.2863 95.1821 22.739V24.426C95.1821 24.4913 95.1961 24.5403 95.2241 24.573C95.2521 24.601 95.2964 24.6173 95.3571 24.622V25C95.3058 25.0047 95.2614 25.0093 95.2241 25.014C95.1868 25.0187 95.1588 25.0187 95.1401 25.014C95.0234 25.0093 94.9348 24.972 94.8741 24.902C94.8134 24.832 94.7808 24.7573 94.7761 24.678L94.7691 24.412C94.6058 24.622 94.3934 24.7853 94.1321 24.902C93.8708 25.014 93.6048 25.07 93.3341 25.07C93.1008 25.07 92.8884 25.021 92.6971 24.923C92.5104 24.8203 92.3634 24.685 92.2561 24.517C92.1534 24.3443 92.1021 24.1553 92.1021 23.95ZM94.5451 24.23C94.5964 24.1647 94.6361 24.1017 94.6641 24.041C94.6921 23.9803 94.7061 23.9267 94.7061 23.88V23.348C94.5474 23.2873 94.3818 23.2407 94.2091 23.208C94.0411 23.1753 93.8708 23.159 93.6981 23.159C93.3574 23.159 93.0821 23.2267 92.8721 23.362C92.6621 23.4973 92.5571 23.6817 92.5571 23.915C92.5571 24.0503 92.5921 24.1787 92.6621 24.3C92.7321 24.4167 92.8348 24.5147 92.9701 24.594C93.1054 24.6687 93.2641 24.706 93.4461 24.706C93.6748 24.706 93.8871 24.6617 94.0831 24.573C94.2838 24.4843 94.4378 24.37 94.5451 24.23ZM95.9655 23.187C95.9655 22.8417 96.0355 22.5267 96.1755 22.242C96.3202 21.9527 96.5185 21.7217 96.7705 21.549C97.0225 21.3763 97.3095 21.29 97.6315 21.29C97.9349 21.29 98.2055 21.3717 98.4435 21.535C98.6862 21.6937 98.8752 21.8873 99.0105 22.116V19.89H99.4865V24.426C99.4865 24.4913 99.5005 24.5403 99.5285 24.573C99.5565 24.601 99.5985 24.6173 99.6545 24.622V25C99.5612 25.014 99.4889 25.0187 99.4375 25.014C99.3395 25.0093 99.2532 24.9697 99.1785 24.895C99.1039 24.8203 99.0665 24.7387 99.0665 24.65V24.293C98.9219 24.531 98.7259 24.72 98.4785 24.86C98.2312 25 97.9745 25.07 97.7085 25.07C97.4565 25.07 97.2232 25.0187 97.0085 24.916C96.7985 24.8133 96.6142 24.6733 96.4555 24.496C96.3015 24.3187 96.1802 24.118 96.0915 23.894C96.0075 23.6653 95.9655 23.4297 95.9655 23.187ZM99.0105 23.747V22.62C98.9499 22.452 98.8519 22.3003 98.7165 22.165C98.5812 22.025 98.4272 21.9153 98.2545 21.836C98.0865 21.752 97.9185 21.71 97.7505 21.71C97.5545 21.71 97.3772 21.752 97.2185 21.836C97.0599 21.9153 96.9222 22.025 96.8055 22.165C96.6935 22.305 96.6072 22.4637 96.5465 22.641C96.4859 22.8183 96.4555 23.0003 96.4555 23.187C96.4555 23.383 96.4882 23.5697 96.5535 23.747C96.6235 23.9243 96.7215 24.083 96.8475 24.223C96.9735 24.3583 97.1182 24.4633 97.2815 24.538C97.4449 24.6127 97.6222 24.65 97.8135 24.65C97.9349 24.65 98.0609 24.6267 98.1915 24.58C98.3222 24.5333 98.4459 24.4703 98.5625 24.391C98.6839 24.307 98.7842 24.209 98.8635 24.097C98.9429 23.985 98.9919 23.8683 99.0105 23.747ZM100.642 25.567L100.761 24.979H100.6V24.314H101.062V24.979L100.887 25.567H100.642ZM104.019 25V20.037H104.509V22.921L107.246 20.03H107.785L105.755 22.214L107.89 25H107.337L105.44 22.508L104.509 23.474V25H104.019ZM109.776 25.07C109.514 25.07 109.272 25.021 109.048 24.923C108.824 24.8203 108.63 24.6827 108.467 24.51C108.303 24.3327 108.175 24.1297 108.082 23.901C107.993 23.6723 107.949 23.4273 107.949 23.166C107.949 22.8253 108.026 22.5127 108.18 22.228C108.338 21.9433 108.555 21.717 108.831 21.549C109.106 21.3763 109.419 21.29 109.769 21.29C110.128 21.29 110.441 21.3763 110.707 21.549C110.977 21.7217 111.19 21.9503 111.344 22.235C111.498 22.515 111.575 22.823 111.575 23.159C111.575 23.1963 111.575 23.2337 111.575 23.271C111.575 23.3037 111.572 23.3293 111.568 23.348H108.446C108.469 23.6093 108.541 23.8427 108.663 24.048C108.789 24.2487 108.95 24.4097 109.146 24.531C109.346 24.6477 109.563 24.706 109.797 24.706C110.035 24.706 110.259 24.6453 110.469 24.524C110.683 24.4027 110.833 24.244 110.917 24.048L111.33 24.16C111.255 24.3327 111.141 24.489 110.987 24.629C110.833 24.769 110.651 24.8787 110.441 24.958C110.235 25.0327 110.014 25.07 109.776 25.07ZM108.432 23.005H111.127C111.108 22.739 111.036 22.5057 110.91 22.305C110.788 22.1043 110.627 21.948 110.427 21.836C110.231 21.7193 110.014 21.661 109.776 21.661C109.538 21.661 109.321 21.7193 109.125 21.836C108.929 21.948 108.768 22.1067 108.642 22.312C108.52 22.5127 108.45 22.7437 108.432 23.005ZM114.129 21.773C113.812 21.7823 113.532 21.871 113.289 22.039C113.051 22.207 112.883 22.438 112.785 22.732V25H112.309V21.353H112.757V22.228C112.883 21.9713 113.049 21.7637 113.254 21.605C113.464 21.4463 113.686 21.3577 113.919 21.339C113.966 21.3343 114.006 21.332 114.038 21.332C114.076 21.332 114.106 21.3343 114.129 21.339V21.773ZM114.456 23.95C114.456 23.7213 114.521 23.5253 114.652 23.362C114.782 23.194 114.962 23.0657 115.191 22.977C115.424 22.8837 115.692 22.837 115.996 22.837C116.173 22.837 116.357 22.851 116.549 22.879C116.74 22.907 116.91 22.949 117.06 23.005V22.697C117.06 22.389 116.969 22.144 116.787 21.962C116.605 21.78 116.353 21.689 116.031 21.689C115.835 21.689 115.641 21.7263 115.45 21.801C115.263 21.871 115.067 21.976 114.862 22.116L114.68 21.78C114.918 21.6167 115.151 21.4953 115.38 21.416C115.608 21.332 115.842 21.29 116.08 21.29C116.528 21.29 116.882 21.4183 117.144 21.675C117.405 21.9317 117.536 22.2863 117.536 22.739V24.426C117.536 24.4913 117.55 24.5403 117.578 24.573C117.606 24.601 117.65 24.6173 117.711 24.622V25C117.659 25.0047 117.615 25.0093 117.578 25.014C117.54 25.0187 117.512 25.0187 117.494 25.014C117.377 25.0093 117.288 24.972 117.228 24.902C117.167 24.832 117.134 24.7573 117.13 24.678L117.123 24.412C116.959 24.622 116.747 24.7853 116.486 24.902C116.224 25.014 115.958 25.07 115.688 25.07C115.454 25.07 115.242 25.021 115.051 24.923C114.864 24.8203 114.717 24.685 114.61 24.517C114.507 24.3443 114.456 24.1553 114.456 23.95ZM116.899 24.23C116.95 24.1647 116.99 24.1017 117.018 24.041C117.046 23.9803 117.06 23.9267 117.06 23.88V23.348C116.901 23.2873 116.735 23.2407 116.563 23.208C116.395 23.1753 116.224 23.159 116.052 23.159C115.711 23.159 115.436 23.2267 115.226 23.362C115.016 23.4973 114.911 23.6817 114.911 23.915C114.911 24.0503 114.946 24.1787 115.016 24.3C115.086 24.4167 115.188 24.5147 115.324 24.594C115.459 24.6687 115.618 24.706 115.8 24.706C116.028 24.706 116.241 24.6617 116.437 24.573C116.637 24.4843 116.791 24.37 116.899 24.23ZM118.585 19.89H119.061V24.174C119.061 24.356 119.094 24.475 119.159 24.531C119.224 24.587 119.304 24.615 119.397 24.615C119.481 24.615 119.565 24.6057 119.649 24.587C119.733 24.5683 119.805 24.5497 119.866 24.531L119.95 24.916C119.861 24.9533 119.752 24.9837 119.621 25.007C119.495 25.0303 119.385 25.042 119.292 25.042C119.077 25.042 118.905 24.979 118.774 24.853C118.648 24.727 118.585 24.5543 118.585 24.335V19.89ZM120.177 23.95C120.177 23.7213 120.243 23.5253 120.373 23.362C120.504 23.194 120.684 23.0657 120.912 22.977C121.146 22.8837 121.414 22.837 121.717 22.837C121.895 22.837 122.079 22.851 122.27 22.879C122.462 22.907 122.632 22.949 122.781 23.005V22.697C122.781 22.389 122.69 22.144 122.508 21.962C122.326 21.78 122.074 21.689 121.752 21.689C121.556 21.689 121.363 21.7263 121.171 21.801C120.985 21.871 120.789 21.976 120.583 22.116L120.401 21.78C120.639 21.6167 120.873 21.4953 121.101 21.416C121.33 21.332 121.563 21.29 121.801 21.29C122.249 21.29 122.604 21.4183 122.865 21.675C123.127 21.9317 123.257 22.2863 123.257 22.739V24.426C123.257 24.4913 123.271 24.5403 123.299 24.573C123.327 24.601 123.372 24.6173 123.432 24.622V25C123.381 25.0047 123.337 25.0093 123.299 25.014C123.262 25.0187 123.234 25.0187 123.215 25.014C123.099 25.0093 123.01 24.972 122.949 24.902C122.889 24.832 122.856 24.7573 122.851 24.678L122.844 24.412C122.681 24.622 122.469 24.7853 122.207 24.902C121.946 25.014 121.68 25.07 121.409 25.07C121.176 25.07 120.964 25.021 120.772 24.923C120.586 24.8203 120.439 24.685 120.331 24.517C120.229 24.3443 120.177 24.1553 120.177 23.95ZM122.62 24.23C122.672 24.1647 122.711 24.1017 122.739 24.041C122.767 23.9803 122.781 23.9267 122.781 23.88V23.348C122.623 23.2873 122.457 23.2407 122.284 23.208C122.116 23.1753 121.946 23.159 121.773 23.159C121.433 23.159 121.157 23.2267 120.947 23.362C120.737 23.4973 120.632 23.6817 120.632 23.915C120.632 24.0503 120.667 24.1787 120.737 24.3C120.807 24.4167 120.91 24.5147 121.045 24.594C121.181 24.6687 121.339 24.706 121.521 24.706C121.75 24.706 121.962 24.6617 122.158 24.573C122.359 24.4843 122.513 24.37 122.62 24.23Z" fill="white"/>
</g>
<defs>
<filter id="filter0_bd_295_528" x="0" y="-4" width="137" height="47" filterUnits="userSpaceOnUse" color-interpolation-filters="sRGB">
<feFlood flood-opacity="0" result="BackgroundImageFix"/>
<feGaussianBlur in="BackgroundImageFix" stdDeviation="2"/>
<feComposite in2="SourceAlpha" operator="in" result="effect1_backgroundBlur_295_528"/>
<feColorMatrix in="SourceAlpha" type="matrix" values="0 0 0 0 0 0 0 0 0 0 0 0 0 0 0 0 0 0 127 0" result="hardAlpha"/>
<feOffset dy="4"/>
<feGaussianBlur stdDeviation="2"/>
<feComposite in2="hardAlpha" operator="out"/>
<feColorMatrix type="matrix" values="0 0 0 0 0.488889 0 0 0 0 0.488889 0 0 0 0 0.488889 0 0 0 0.25 0"/>
<feBlend mode="normal" in2="effect1_backgroundBlur_295_528" result="effect2_dropShadow_295_528"/>
<feBlend mode="normal" in="SourceGraphic" in2="effect2_dropShadow_295_528" result="shape"/>
</filter>
</defs>
</svg>
